# xmcd CD database file
#
# Track frame offsets:
#	150
#	26337
#	45025
#	71212
#
# Disc length: 1194 seconds
#
# Revision: 0
# Processed by: cddbd v1.5.1PL2 Copyright (c) Steve Scherf et al.
# Submitted via: CD2WAV32(JP) R3.22
#
DISCID=2704a804
DTITLE=T’s WORKSHOP - 時を越えて
DYEAR=1995
DGENRE=Anime(J)
TTITLE0=時を越えて
TTITLE1=ずっと いっしょだよ
TTITLE2=時を越えて（KARAOKE）
TTITLE3=ずっと いっしょだよ（KARAOKE）
EXTD=
EXTT0=
EXTT1=
EXTT2=
EXTT3=
PLAYORDER=
